<svg width="24" height="24" viewBox="0 0 24 24" fill="none" xmlns="http://www.w3.org/2000/svg">
<path d="M23.875 12C23.875 18.5584 18.5584 23.875 12 23.875C5.44162 23.875 0.125 18.5584 0.125 12C0.125 5.44162 5.44162 0.125 12 0.125C18.5584 0.125 23.875 5.44162 23.875 12Z" fill="#353C3C" fill-opacity="0.45" stroke="white" stroke-width="0.25"/>
<g clip-path="url(#clip0_1_53)">
<path d="M15.363 14.6412C15.363 14.6412 15.363 14.6411 15.363 14.641C15.4913 14.2514 15.5108 14.0958 15.4956 14.0148C15.4955 14.0143 15.4954 14.0136 15.4953 14.0129C15.4925 13.9949 15.4809 13.9213 15.2327 13.7878L15.2323 13.7876C15.1152 13.7245 15.003 13.6622 14.894 13.6016C14.5862 13.4305 14.3035 13.2735 14.0059 13.1523L14.0054 13.1521C13.951 13.1299 13.9174 13.1224 13.8994 13.1201C13.8876 13.1319 13.8641 13.1584 13.8281 13.2129C13.7973 13.2596 13.767 13.3112 13.7274 13.3786L13.7196 13.3919C13.6789 13.4611 13.6294 13.5449 13.5729 13.6281C13.4598 13.7945 13.2966 13.9929 13.0469 14.1297L13.0468 14.1298C12.6414 14.3517 12.2159 14.2302 11.9511 14.118C11.7126 14.0169 11.4803 13.8682 11.325 13.7687C11.3 13.7527 11.2769 13.738 11.2562 13.7249L11.2536 13.7233L11.2536 13.7233C10.6018 13.3072 10.0287 12.7792 9.56062 12.1636C9.54005 12.1369 9.51308 12.1031 9.48179 12.0639C9.37665 11.9322 9.22285 11.7395 9.10022 11.5485C9.01701 11.419 8.93289 11.2684 8.87404 11.1075C8.81605 10.9489 8.77126 10.7497 8.80255 10.536L8.80277 10.5344L8.80277 10.5344C8.87067 10.0806 9.16738 9.7879 9.31916 9.63819C9.34119 9.61645 9.36018 9.59773 9.37496 9.58197C9.44898 9.50302 9.46858 9.46687 9.47643 9.44388C9.4807 9.43138 9.49572 9.38506 9.46222 9.26408L9.4621 9.26367C9.4118 9.08145 9.33946 8.89322 9.25445 8.68871C9.22963 8.62902 9.20293 8.56612 9.17547 8.50142C9.11372 8.35594 9.0481 8.20138 8.99141 8.05372C8.99137 8.05363 8.99133 8.05353 8.99129 8.05343L9.45807 7.87422C9.44325 7.83575 9.42904 7.79825 9.41522 7.76177C9.23158 7.27711 9.1167 6.97392 8.54307 7.00182L15.363 14.6412ZM15.363 14.6412L15.3629 14.6413C15.3629 14.6415 15.3628 14.6416 15.3628 14.6418C15.3628 14.6418 15.3628 14.6419 15.3627 14.6419C15.278 14.8987 15.0562 15.1276 14.7298 15.2909C14.4031 15.4543 14.0292 15.521 13.7391 15.4948C12.7995 15.4099 11.7283 14.8991 10.888 14.3048C9.66743 13.4415 8.51689 12.0976 7.85076 10.6807L7.85075 10.6807C7.39579 9.71311 7.34465 8.63246 7.92568 7.87508L15.363 14.6412ZM8.22278 7.59356C8.30969 7.54321 8.41557 7.50886 8.56771 7.50121L7.92576 7.87498C8.03617 7.73118 8.132 7.64614 8.22278 7.59356ZM13.8827 13.1197C13.8826 13.1195 13.8843 13.1191 13.8881 13.1192C13.8847 13.1199 13.8828 13.1198 13.8827 13.1197ZM15.6881 14.7483L15.8379 14.7976L15.6881 14.7483C15.6881 14.7483 15.6881 14.7483 15.6881 14.7483Z" stroke="#09D7C3"/>
</g>
<defs>
<clipPath id="clip0_1_53">
<rect width="9" height="9" fill="white" transform="translate(7 7)"/>
</clipPath>
</defs>
</svg>
