<svg width="13" height="13" viewBox="0 0 13 13" fill="none" xmlns="http://www.w3.org/2000/svg">
<g clip-path="url(#clip0_13_51)">
<path d="M9.49523 7.91174C9.49523 8.45774 9.65058 8.67549 10.0568 8.67549C10.9623 8.67549 11.5388 7.52174 11.5388 5.60294C11.5388 2.67014 9.40163 1.26614 6.73338 1.26614C3.98843 1.26614 1.49178 3.10694 1.49178 6.58574C1.49178 9.90854 3.67578 11.7181 7.02978 11.7181C8.16858 11.7181 8.93298 11.5933 10.1023 11.2033L10.3532 12.2479C9.19883 12.6229 7.96513 12.7315 7.01418 12.7315C2.61498 12.7315 0.258728 10.3135 0.258728 6.58509C0.258728 2.82549 2.98938 0.26709 6.74898 0.26709C10.6646 0.26709 12.7387 2.60709 12.7387 5.47749C12.7387 7.91109 11.975 9.76749 9.57258 9.76749C8.47993 9.76749 7.76298 9.33069 7.66938 8.36284C7.38858 9.43924 6.63978 9.76749 5.62513 9.76749C4.26793 9.76749 3.12913 8.72164 3.12913 6.61629C3.12913 4.49469 4.12818 3.18429 5.92218 3.18429C6.87378 3.18429 7.46658 3.55869 7.73048 4.15149L8.18353 3.32469H9.49393V7.91174H9.49523ZM7.57708 5.85254C7.57708 4.99519 6.93683 4.63574 6.40643 4.63574C5.82923 4.63574 5.19028 5.10309 5.19028 6.47654C5.19028 7.56854 5.67388 8.17694 6.40643 8.17694C6.92123 8.17694 7.57708 7.84934 7.57708 6.94454V5.85254Z" fill="#09D7C3"/>
</g>
<defs>
<clipPath id="clip0_13_51">
<rect width="13" height="13" fill="white"/>
</clipPath>
</defs>
</svg>
