<svg width="60" height="60" viewBox="0 0 60 60" fill="none" xmlns="http://www.w3.org/2000/svg">
<path d="M36.5156 20.8361C36.3984 21.1759 35.0273 25.8634 34.4883 27.5275C34.4883 27.5392 34.4766 27.5392 34.4766 27.5509C34.4766 27.5627 34.4766 27.5744 34.4766 27.5744C34.4766 27.5861 33.8906 29.0627 34.4766 30.4923C34.6289 30.8673 34.4531 31.3127 34.0781 31.465C33.7031 31.6173 33.2695 31.4416 33.1055 31.0666C32.6367 29.9298 32.6953 28.8166 32.8359 28.0431H17.707C17.3555 30.4103 18.4805 32.4494 19.5352 33.7736C20.9766 35.6134 21.7734 37.9689 21.7734 40.4181V49.9455H35.6602V40.5588C35.6602 38.2853 36.457 35.965 37.9687 33.8322C39.2227 32.0627 39.5977 29.6955 39.9844 27.1994C40.4062 24.5744 40.875 21.5861 42.4453 18.7736C42.6562 18.3634 42.4922 17.7658 42.0117 17.6017C39.6797 16.8048 37.3242 18.422 36.5156 20.8361Z" fill="#09D7C3"/>
<path d="M39.5625 16.0664V13.4297C39.5625 12.3281 38.707 11.4727 37.6055 11.4727C36.5273 11.4727 35.6484 12.3516 35.6484 13.4297V19.1484C36.5391 17.5898 37.957 16.4648 39.5625 16.0664ZM30.2578 12.0117V19.1719C30.2578 20.2734 31.1133 21.1289 32.2148 21.1289C33.3164 21.1289 34.1719 20.2734 34.1719 19.1719V13.4414V12.0117C34.1719 10.9102 33.3164 10.0547 32.2148 10.0547C31.1133 10.0547 30.2578 10.9102 30.2578 12.0117ZM24.8672 12.0117V14.8711C24.8672 14.9648 24.8672 19.3242 24.8672 19.1719C24.8672 20.25 25.7461 21.1289 26.8242 21.1289C27.9023 21.1289 28.7812 20.25 28.7812 19.1719V12.0117C28.7812 10.9336 27.9023 10.0547 26.8242 10.0547C25.7461 10.0547 24.8672 10.9336 24.8672 12.0117ZM21.4102 20.8359H21.4219C22.5234 20.8359 23.3789 19.9805 23.3789 18.8789V14.8594C23.3789 13.7578 22.5234 12.9023 21.4219 12.9023C20.332 12.9023 19.4531 13.7813 19.4531 14.8594V18.8789C19.4531 19.957 20.332 20.8359 21.4102 20.8359ZM41.5898 26.5547H45.6797V19.6172H43.6758C42.4453 21.8906 41.9766 24.2461 41.5898 26.5547ZM57.3633 14.7539C55.9102 14.7539 54.7383 15.9375 54.7383 17.3789V28.7695C54.7383 30.2227 55.9219 31.4063 57.375 31.4063C58.8281 31.4063 60 30.2227 60 28.7813V17.4023C60 15.9258 58.8164 14.7539 57.3633 14.7539ZM50.2148 36.1172C51.8906 36.1172 53.25 34.7578 53.25 33.082V28.7695V17.3789V13.0898C53.25 11.4258 51.8906 10.0547 50.2148 10.0547C48.5391 10.0547 47.1797 11.4141 47.1797 13.0898C47.1914 41.3555 47.1797 6.57422 47.1797 33.082C47.1797 34.7461 48.5391 36.1172 50.2148 36.1172ZM5.26172 17.4023C5.26172 15.9727 4.125 14.7539 2.625 14.7539C1.18359 14.7539 0 15.9375 0 17.3789V28.7695C0 30.2227 1.18359 31.4063 2.63672 31.4063C4.08984 31.4063 5.26172 30.2227 5.26172 28.7813V17.4023Z" fill="#09D7C3"/>
<path d="M33.2344 26.5547C33.6211 25.3359 34.0312 23.9297 34.3828 22.7344C34.4414 22.5234 34.5 22.3359 34.5586 22.1484C34.5 22.0312 34.4414 21.9258 34.3945 21.7969C33.7969 22.2891 33.0469 22.6055 32.2148 22.6055C31.1133 22.6055 30.1523 22.0781 29.5195 21.2695C28.8867 22.0781 27.9258 22.6055 26.8242 22.6055C25.6641 22.6055 24.6328 22.0195 24.0117 21.1289C23.3789 21.8555 22.4648 22.3242 21.4336 22.3242H21.4219C19.7813 22.3242 18.3984 21.1641 18.0586 19.6172H14.3203V26.5547H17.0977H33.2344ZM9.78516 36.1172C11.4609 36.1172 12.8203 34.7578 12.8203 33.082V13.0898C12.8203 11.4258 11.4492 10.0547 9.78516 10.0547C8.10938 10.0547 6.75 11.4141 6.75 13.0898C6.75 17.1562 6.75 25.4531 6.75 33.082C6.75 34.7461 8.12109 36.1172 9.78516 36.1172Z" fill="#09D7C3"/>
</svg>
