<svg width="34" height="33" viewBox="0 0 34 33" fill="none" xmlns="http://www.w3.org/2000/svg">
<path d="M25.8544 5.70899C25.4628 5.70899 25.08 5.82512 24.7544 6.04268C24.4288 6.26025 24.175 6.56948 24.0251 6.93128C23.8753 7.29307 23.8361 7.69118 23.9125 8.07527C23.9889 8.45935 24.1774 8.81215 24.4543 9.08906C24.7313 9.36596 25.0841 9.55454 25.4681 9.63094C25.8522 9.70734 26.2503 9.66813 26.6121 9.51827C26.9739 9.36841 27.2832 9.11462 27.5007 8.78902C27.7183 8.46341 27.8344 8.08059 27.8344 7.68899C27.8344 7.16386 27.6258 6.66024 27.2545 6.28892C26.8832 5.9176 26.3795 5.70899 25.8544 5.70899ZM33.4444 9.70199C33.4123 8.33298 33.1559 6.9785 32.6854 5.69249C32.2659 4.59216 31.6129 3.5958 30.7714 2.772C29.9544 1.92625 28.9557 1.27739 27.8509 0.874499C26.5683 0.389665 25.2123 0.127396 23.8414 0.0989998C22.0924 -9.22008e-08 21.5314 0 17.0434 0C12.5554 0 11.9944 -9.22008e-08 10.2454 0.0989998C8.87455 0.127396 7.51856 0.389665 6.23595 0.874499C5.13322 1.28147 4.13539 1.92977 3.31545 2.772C2.46971 3.58904 1.82085 4.58772 1.41796 5.69249C0.933122 6.97511 0.670853 8.33109 0.642457 9.70199C0.543457 11.451 0.543457 12.012 0.543457 16.5C0.543457 20.988 0.543457 21.549 0.642457 23.298C0.670853 24.6689 0.933122 26.0248 1.41796 27.3075C1.82085 28.4122 2.46971 29.4109 3.31545 30.228C4.13539 31.0702 5.13322 31.7185 6.23595 32.1255C7.51856 32.6103 8.87455 32.8726 10.2454 32.901C11.9944 33 12.5554 33 17.0434 33C21.5314 33 22.0924 33 23.8414 32.901C25.2123 32.8726 26.5683 32.6103 27.8509 32.1255C28.9557 31.7226 29.9544 31.0737 30.7714 30.228C31.6166 29.4072 32.2702 28.41 32.6854 27.3075C33.1559 26.0214 33.4123 24.667 33.4444 23.298C33.4444 21.549 33.5434 20.988 33.5434 16.5C33.5434 12.012 33.5434 11.451 33.4444 9.70199ZM30.4744 23.1C30.4624 24.1473 30.2727 25.1851 29.9134 26.169C29.65 26.887 29.2268 27.5359 28.6759 28.0665C28.1407 28.6118 27.4932 29.0341 26.7784 29.304C25.7945 29.6632 24.7568 29.8529 23.7094 29.865C22.0594 29.9475 21.4489 29.964 17.1094 29.964C12.7699 29.964 12.1594 29.964 10.5094 29.865C9.42191 29.8853 8.33903 29.7179 7.30845 29.37C6.62499 29.0863 6.00719 28.6651 5.49345 28.1325C4.9458 27.6024 4.52794 26.953 4.27245 26.235C3.86962 25.237 3.64618 24.1757 3.61245 23.1C3.61245 21.45 3.51345 20.8395 3.51345 16.5C3.51345 12.1605 3.51345 11.55 3.61245 9.89998C3.61985 8.82923 3.81532 7.7681 4.18995 6.76499C4.48043 6.06854 4.92629 5.44773 5.49345 4.94999C5.99474 4.38267 6.61427 3.9321 7.30845 3.62999C8.3142 3.26707 9.37424 3.07738 10.4434 3.069C12.0934 3.069 12.7039 2.97 17.0434 2.97C21.3829 2.97 21.9934 2.97 23.6434 3.069C24.6908 3.08101 25.7285 3.2707 26.7124 3.62999C27.4622 3.90827 28.1352 4.36069 28.6759 4.94999C29.2166 5.45684 29.6391 6.0765 29.9134 6.76499C30.2801 7.76973 30.4699 8.83042 30.4744 9.89998C30.5569 11.55 30.5734 12.1605 30.5734 16.5C30.5734 20.8395 30.5569 21.45 30.4744 23.1ZM17.0434 8.03549C15.37 8.03875 13.7351 8.53795 12.3453 9.47003C10.9555 10.4021 9.87317 11.7252 9.23504 13.2722C8.59691 14.8191 8.43164 16.5205 8.7601 18.1614C9.08857 19.8023 9.89603 21.309 11.0805 22.4911C12.2649 23.6732 13.7732 24.4777 15.4147 24.803C17.0562 25.1283 18.7572 24.9597 20.3029 24.3185C21.8487 23.6774 23.1697 22.5925 24.099 21.2009C25.0284 19.8093 25.5244 18.1734 25.5244 16.5C25.5266 15.3864 25.3086 14.2834 24.883 13.2544C24.4573 12.2253 23.8324 11.2906 23.0443 10.504C22.2561 9.71732 21.3201 9.09425 20.2903 8.67062C19.2604 8.24698 18.157 8.03114 17.0434 8.03549ZM17.0434 21.9945C15.9567 21.9945 14.8944 21.6722 13.9909 21.0685C13.0873 20.4647 12.383 19.6066 11.9672 18.6026C11.5513 17.5986 11.4425 16.4939 11.6545 15.4281C11.8665 14.3622 12.3898 13.3832 13.1582 12.6148C13.9267 11.8464 14.9057 11.3231 15.9715 11.1111C17.0373 10.8991 18.1421 11.0079 19.1461 11.4237C20.1501 11.8396 21.0082 12.5438 21.6119 13.4474C22.2157 14.351 22.5379 15.4133 22.5379 16.5C22.5379 17.2215 22.3958 17.936 22.1197 18.6026C21.8436 19.2692 21.4388 19.875 20.9286 20.3852C20.4184 20.8954 19.8127 21.3001 19.1461 21.5762C18.4795 21.8523 17.765 21.9945 17.0434 21.9945Z" fill="white"/>
</svg>
