<svg width="24" height="24" viewBox="0 0 24 24" fill="none" xmlns="http://www.w3.org/2000/svg">
<path d="M23.875 12C23.875 18.5584 18.5584 23.875 12 23.875C5.44162 23.875 0.125 18.5584 0.125 12C0.125 5.44162 5.44162 0.125 12 0.125C18.5584 0.125 23.875 5.44162 23.875 12Z" fill="#353C3C" fill-opacity="0.45" stroke="white" stroke-width="0.25"/>
<path d="M12.5 6C10.7761 6 9.12279 6.54785 7.90381 7.52304C6.68482 8.49823 6 9.82086 6 11.2C6 14.71 11.7281 18.675 11.9719 18.844C12.119 18.9447 12.3063 19 12.5 19C12.6937 19 12.881 18.9447 13.0281 18.844C13.3125 18.675 19 14.71 19 11.2C19 9.82086 18.3152 8.49823 17.0962 7.52304C15.8772 6.54785 14.2239 6 12.5 6ZM12.5 17.4725C10.7694 16.1725 7.625 13.371 7.625 11.2C7.625 10.1656 8.13861 9.17367 9.05285 8.44228C9.96709 7.71089 11.2071 7.3 12.5 7.3C13.7929 7.3 15.0329 7.71089 15.9471 8.44228C16.8614 9.17367 17.375 10.1656 17.375 11.2C17.375 13.371 14.2306 16.179 12.5 17.4725ZM12.5 8.59999C11.8572 8.59999 11.2289 8.75248 10.6944 9.03817C10.1599 9.32386 9.74338 9.72992 9.49739 10.205C9.25141 10.6801 9.18705 11.2029 9.31245 11.7072C9.43785 12.2116 9.74738 12.6748 10.2019 13.0385C10.6564 13.4021 11.2355 13.6497 11.866 13.75C12.4964 13.8503 13.1499 13.7988 13.7437 13.6021C14.3376 13.4053 14.8452 13.072 15.2023 12.6445C15.5594 12.2169 15.75 11.7142 15.75 11.2C15.75 10.5104 15.4076 9.8491 14.7981 9.36151C14.1886 8.87392 13.362 8.59999 12.5 8.59999ZM12.5 12.5C12.1786 12.5 11.8644 12.4237 11.5972 12.2809C11.33 12.138 11.1217 11.935 10.9987 11.6975C10.8757 11.4599 10.8435 11.1985 10.9062 10.9464C10.9689 10.6942 11.1237 10.4626 11.351 10.2807C11.5782 10.0989 11.8678 9.97513 12.183 9.92497C12.4982 9.87481 12.8249 9.90055 13.1219 9.99894C13.4188 10.0973 13.6726 10.264 13.8511 10.4777C14.0297 10.6915 14.125 10.9429 14.125 11.2C14.125 11.5448 13.9538 11.8754 13.649 12.1192C13.3443 12.363 12.931 12.5 12.5 12.5Z" fill="#09D7C3"/>
</svg>
