<svg width="196" height="24" viewBox="0 0 196 24" fill="none" xmlns="http://www.w3.org/2000/svg">
<g clip-path="url(#clip0_1_660)">
<path d="M171.318 24V0H189.585C190.452 0 191.24 0.222223 191.952 0.666666C192.685 1.08889 193.274 1.66667 193.718 2.4C194.163 3.11112 194.385 3.9111 194.385 4.8V9.39999C194.385 9.68889 194.363 9.96666 194.318 10.2333C194.274 10.4778 194.207 10.7222 194.118 10.9667C194.474 11.4333 194.763 11.9444 194.985 12.5C195.207 13.0333 195.318 13.5778 195.318 14.1333V19.2C195.318 20.0889 195.096 20.9 194.652 21.6333C194.207 22.3444 193.618 22.9222 192.885 23.3667C192.174 23.7889 191.374 24 190.485 24H171.318ZM176.318 19.1667H190.251C190.318 19.1667 190.362 19.1556 190.385 19.1333C190.429 19.0889 190.452 19.0333 190.452 18.9667V14.4C190.452 14.3556 190.429 14.3111 190.385 14.2667C190.362 14.2222 190.318 14.2 190.251 14.2H176.318C176.251 14.2 176.196 14.2222 176.151 14.2667C176.129 14.3111 176.118 14.3556 176.118 14.4V18.9667C176.118 19.0333 176.129 19.0889 176.151 19.1333C176.196 19.1556 176.251 19.1667 176.318 19.1667ZM176.318 9.36666H189.318C189.363 9.36666 189.407 9.35556 189.451 9.33333C189.496 9.2889 189.518 9.24444 189.518 9.20001V5.03334C189.518 4.96668 189.496 4.92222 189.451 4.89999C189.407 4.85556 189.363 4.83333 189.318 4.83333H176.318C176.251 4.83333 176.196 4.85556 176.151 4.89999C176.129 4.92222 176.118 4.96668 176.118 5.03334V9.20001C176.118 9.24444 176.129 9.2889 176.151 9.33333C176.196 9.35556 176.251 9.36666 176.318 9.36666Z" fill="#09D7C3"/>
<path d="M148.347 24C147.458 24 146.647 23.7889 145.914 23.3667C145.203 22.9222 144.625 22.3444 144.18 21.6333C143.758 20.9 143.547 20.0889 143.547 19.2V0H148.347V18.9667C148.347 19.0333 148.358 19.0889 148.38 19.1333C148.425 19.1556 148.48 19.1667 148.547 19.1667H162.48C162.547 19.1667 162.591 19.1556 162.614 19.1333C162.658 19.0889 162.68 19.0333 162.68 18.9667V0H167.547V19.2C167.547 20.0889 167.325 20.9 166.88 21.6333C166.436 22.3444 165.847 22.9222 165.114 23.3667C164.403 23.7889 163.614 24 162.747 24H148.347Z" fill="#09D7C3"/>
<path d="M115.294 24V0H120.094V9.56667H134.994V0H139.794V24H134.994V14.4333H120.094V24H115.294Z" fill="#09D7C3"/>
<path d="M84.3368 24V0H89.4368L97.8368 10.0333L106.203 0H111.337V24H106.503V7.16667L97.8368 17.5333L89.1368 7.2V24H84.3368Z" fill="white"/>
<path d="M66.6145 24V15.0333L55.5145 0H61.2145L69.0145 9.80001L76.7812 0H82.5478L71.4478 15.0667V24H66.6145Z" fill="white"/>
<path d="M35.1 24C34.2111 24 33.3999 23.7889 32.6667 23.3667C31.9557 22.9222 31.3779 22.3444 30.9333 21.6333C30.5112 20.9 30.3 20.0889 30.3 19.2V4.8C30.3 3.9111 30.5112 3.11112 30.9333 2.4C31.3779 1.66667 31.9557 1.08889 32.6667 0.666666C33.3999 0.222223 34.2111 0 35.1 0H49.4668C50.3557 0 51.1558 0.222223 51.8668 0.666666C52.6 1.08889 53.1889 1.66667 53.6334 2.4C54.0777 3.11112 54.3 3.9111 54.3 4.8V6.86667H49.4334V5.03334C49.4334 4.96668 49.4112 4.92222 49.3668 4.89999C49.3443 4.85556 49.2999 4.83333 49.2333 4.83333H35.3001C35.2332 4.83333 35.1777 4.85556 35.1333 4.89999C35.1111 4.92222 35.1 4.96668 35.1 5.03334V18.9667C35.1 19.0333 35.1111 19.0889 35.1333 19.1333C35.1777 19.1556 35.2332 19.1667 35.3001 19.1667H49.2333C49.2999 19.1667 49.3443 19.1556 49.3668 19.1333C49.4112 19.0889 49.4334 19.0333 49.4334 18.9667V15.0333H44.1333V10.2H54.3V19.2C54.3 20.0889 54.0777 20.9 53.6334 21.6333C53.1889 22.3444 52.6 22.9222 51.8668 23.3667C51.1558 23.7889 50.3557 24 49.4668 24H35.1Z" fill="white"/>
<path d="M13.4133 21.0681L14.2639 21.9188C14.3377 21.9926 14.4253 22.0511 14.5217 22.091C14.6181 22.131 14.7214 22.1515 14.8258 22.1515C14.9301 22.1515 15.0334 22.131 15.1299 22.091C15.2263 22.0511 15.3139 21.9926 15.3876 21.9188L15.8218 21.4866C15.8237 21.4885 15.8237 21.4925 15.8277 21.4944L16.6783 22.3451C16.8272 22.4939 17.0291 22.5777 17.2397 22.5781C17.4503 22.5785 17.6525 22.4954 17.802 22.347L18.0927 22.0563L19.234 23.1977C19.383 23.3465 19.5849 23.4303 19.7955 23.4307C20.0061 23.4311 20.2082 23.348 20.3577 23.1996L20.6485 22.9089L20.6544 22.9148L21.505 23.7674C21.6542 23.916 21.8562 23.9994 22.0668 23.9994C22.2774 23.9994 22.4794 23.916 22.6287 23.7674L23.7661 22.6338C23.84 22.5602 23.8987 22.4727 23.9388 22.3764C23.9789 22.28 23.9997 22.1768 23.9998 22.0724C24 21.968 23.9797 21.8647 23.9399 21.7682C23.9001 21.6717 23.8417 21.584 23.7681 21.5101L22.9155 20.6575C22.9135 20.6556 22.9115 20.6556 22.9096 20.6536L23.2003 20.3629C23.2747 20.2895 23.3338 20.202 23.3739 20.1055C23.4141 20.009 23.4345 19.9055 23.4341 19.801C23.4343 19.6967 23.4139 19.5934 23.3741 19.497C23.3343 19.4006 23.2759 19.313 23.2023 19.2392L22.0668 18.1037C22.0648 18.1017 22.0629 18.1017 22.0609 18.0998L22.3517 17.809C22.5001 17.6597 22.5835 17.4577 22.5835 17.2472C22.5835 17.0366 22.5001 16.8346 22.3517 16.6853L21.4951 15.8288L21.9274 15.3985C22.0766 15.2496 22.1607 15.0476 22.1611 14.8367C22.1615 14.7322 22.1411 14.6287 22.1009 14.5322C22.0608 14.4357 22.0018 14.3482 21.9274 14.2748L21.0767 13.4222C20.9274 13.2738 20.7254 13.1905 20.5149 13.1904C20.4106 13.19 20.3072 13.2103 20.2108 13.2501C20.1143 13.2899 20.0267 13.3484 19.9531 13.4222L13.4133 19.9444C13.3393 20.018 13.2805 20.1056 13.2403 20.202C13.2002 20.2984 13.1796 20.4018 13.1796 20.5063C13.1796 20.6107 13.2002 20.7141 13.2403 20.8105C13.2805 20.907 13.3393 20.9945 13.4133 21.0681ZM23.2121 22.0759L22.0609 23.2114L21.2103 22.349L22.3477 21.2135C22.3517 21.2096 22.3576 21.2096 22.3595 21.2135L23.2121 22.0759ZM22.6463 19.8069L19.79 22.6417L18.6545 21.4964L21.4971 18.6596C21.4993 18.6587 21.5016 18.6581 21.504 18.6581C21.5064 18.6581 21.5087 18.6587 21.5109 18.6596L22.6463 19.8069ZM21.7957 17.253L17.2342 21.791L16.3836 20.9267L20.9314 16.3906C20.9322 16.3897 20.9333 16.3889 20.9345 16.3884C20.9357 16.3879 20.9369 16.3877 20.9382 16.3877C20.9395 16.3877 20.9408 16.3879 20.942 16.3884C20.9431 16.3889 20.9442 16.3897 20.9451 16.3906L21.7957 17.253ZM20.509 13.9782C20.511 13.9743 20.5168 13.9743 20.5208 13.9782L21.3714 14.8406L14.8199 21.3628L13.9693 20.5004L20.509 13.9782Z" fill="#09D7C3"/>
<path d="M17.8139 15.5562L17.2582 16.1118L13.6866 12.5397L14.2421 11.9844L17.8139 15.5562ZM16.1088 17.2575L15.5532 17.8129L11.9834 14.243L12.5389 13.6874L16.1088 17.2575Z" fill="white"/>
<path d="M10.5865 2.93129L9.7359 2.08066C9.66213 2.00686 9.57453 1.94831 9.47814 1.90837C9.38175 1.86843 9.2784 1.84787 9.17406 1.84787C9.06972 1.84787 8.9664 1.86843 8.86998 1.90837C8.77359 1.94831 8.68599 2.00686 8.61222 2.08066L8.17809 2.51285C8.17611 2.51088 8.17611 2.50695 8.17218 2.50499L7.32156 1.65436C7.17261 1.50548 6.97074 1.42169 6.76014 1.42132C6.54954 1.42096 6.34737 1.50404 6.19788 1.65239L5.90715 1.94314L4.7658 0.801759C4.61682 0.652884 4.41495 0.569094 4.20435 0.568725C3.99375 0.568356 3.79161 0.651441 3.64212 0.799794L3.35136 1.09054L3.34548 1.08465L2.49486 0.232049C2.34564 0.0834375 2.14362 0 1.93303 0C1.72243 0 1.52041 0.0834375 1.37119 0.232049L0.233758 1.36557C0.159832 1.43922 0.101139 1.52671 0.0610302 1.62304C0.0209215 1.71937 0.00018364 1.82266 1.21416e-06 1.92701C-0.000181212 2.03137 0.0201952 2.13473 0.0599667 2.2312C0.0997383 2.32768 0.158126 2.41537 0.231794 2.48927L1.08437 3.34188C1.08634 3.34383 1.0883 3.34383 1.09027 3.34581L0.799527 3.63654C0.725091 3.70989 0.666066 3.7974 0.625923 3.89388C0.585777 3.99036 0.56532 4.09389 0.565755 4.19841C0.565596 4.30269 0.585984 4.40598 0.625758 4.5024C0.665535 4.59879 0.723912 4.68642 0.797562 4.76025L1.93303 5.89575C1.93499 5.8977 1.93695 5.8977 1.93892 5.89968L1.64818 6.19041C1.49971 6.33972 1.41637 6.54171 1.41637 6.75225C1.41637 6.96282 1.49971 7.16481 1.64818 7.31412L2.50468 8.17065L2.0725 8.60088C1.92322 8.7498 1.83915 8.95185 1.83873 9.16272C1.8383 9.26721 1.85875 9.37077 1.8989 9.46725C1.93904 9.56373 1.99807 9.65121 2.0725 9.72456L2.92312 10.5772C3.07245 10.7256 3.27441 10.8089 3.48495 10.809C3.58929 10.8094 3.69264 10.7891 3.78909 10.7493C3.88551 10.7095 3.97311 10.651 4.04679 10.5772L10.5865 4.05498C10.6606 3.98136 10.7194 3.89382 10.7595 3.7974C10.7996 3.70098 10.8203 3.59757 10.8203 3.49314C10.8203 3.38871 10.7996 3.2853 10.7595 3.18888C10.7194 3.09243 10.6606 3.00489 10.5865 2.93129ZM0.78774 1.92349L1.93892 0.788007L2.78954 1.65043L1.65211 2.78591C1.64818 2.78984 1.64228 2.78984 1.64032 2.78591L0.78774 1.92349ZM1.35351 4.1925L4.20984 1.35771L5.34531 2.50302L2.50272 5.33979C2.50056 5.34075 2.49822 5.34126 2.49585 5.34126C2.49348 5.34126 2.49113 5.34075 2.48897 5.33979L1.35351 4.1925ZM2.20412 6.74637L6.76563 2.20835L7.61625 3.07272L3.06849 7.60878C3.06762 7.60974 3.06654 7.61049 3.06537 7.611C3.06417 7.61151 3.06291 7.61178 3.06162 7.61178C3.06033 7.61178 3.05904 7.61151 3.05787 7.611C3.05667 7.61049 3.05562 7.60974 3.05475 7.60878L2.20412 6.74637ZM3.49086 10.0212C3.48888 10.0251 3.483 10.0251 3.47907 10.0212L2.62845 9.15879L9.17997 2.63661L10.0306 3.49902L3.49086 10.0212Z" fill="#09D7C3"/>
<path d="M10.5865 21.0691L9.7359 21.9197C9.66213 21.9935 9.57453 22.0521 9.47814 22.092C9.38175 22.132 9.2784 22.1525 9.17406 22.1525C9.06972 22.1525 8.9664 22.132 8.86998 22.092C8.77359 22.0521 8.68599 21.9935 8.61222 21.9197L8.17809 21.4875C8.17611 21.4895 8.17611 21.4934 8.17218 21.4954L7.32156 22.346C7.17261 22.4949 6.97074 22.5787 6.76014 22.5791C6.54954 22.5794 6.34737 22.4963 6.19788 22.348L5.90715 22.0573L4.7658 23.1986C4.61682 23.3475 4.41495 23.4313 4.20435 23.4316C3.99375 23.432 3.79161 23.3489 3.64212 23.2006L3.35136 22.9099L3.34548 22.9157L2.49486 23.7683C2.34564 23.917 2.14362 24.0004 1.93303 24.0004C1.72243 24.0004 1.52041 23.917 1.37119 23.7683L0.233758 22.6348C0.159832 22.5612 0.101139 22.4737 0.0610302 22.3774C0.0209215 22.281 0.00018364 22.1777 1.21416e-06 22.0734C-0.000181212 21.969 0.0201952 21.8656 0.0599667 21.7692C0.0997383 21.6727 0.158126 21.585 0.231794 21.5111L1.08437 20.6585C1.08634 20.6566 1.0883 20.6566 1.09027 20.6546L0.799527 20.3638C0.725091 20.2905 0.666066 20.203 0.625923 20.1065C0.585777 20.01 0.56532 19.9065 0.565755 19.802C0.565596 19.6977 0.585984 19.5944 0.625758 19.498C0.665535 19.4016 0.723912 19.314 0.797562 19.2401L1.93303 18.1046C1.93499 18.1027 1.93695 18.1027 1.93892 18.1007L1.64818 17.81C1.49971 17.6607 1.41637 17.4587 1.41637 17.2481C1.41637 17.0376 1.49971 16.8356 1.64818 16.6863L2.50468 15.8297L2.0725 15.3995C1.92322 15.2506 1.83915 15.0485 1.83873 14.8377C1.8383 14.7332 1.85875 14.6296 1.8989 14.5331C1.93904 14.4367 1.99807 14.3492 2.0725 14.2758L2.92312 13.4232C3.07245 13.2748 3.27441 13.1915 3.48495 13.1914C3.58929 13.191 3.69264 13.2113 3.78909 13.2511C3.88551 13.2909 3.97311 13.3494 4.04679 13.4232L10.5865 19.9454C10.6606 20.019 10.7194 20.1066 10.7595 20.203C10.7996 20.2994 10.8203 20.4028 10.8203 20.5072C10.8203 20.6117 10.7996 20.7151 10.7595 20.8115C10.7194 20.908 10.6606 20.9955 10.5865 21.0691ZM0.78774 22.0769L1.93892 23.2124L2.78954 22.35L1.65211 21.2145C1.64818 21.2105 1.64228 21.2105 1.64032 21.2145L0.78774 22.0769ZM1.35351 19.8079L4.20984 22.6427L5.34531 21.4974L2.50272 18.6606C2.50056 18.6596 2.49822 18.6591 2.49585 18.6591C2.49348 18.6591 2.49113 18.6596 2.48897 18.6606L1.35351 19.8079ZM2.20412 17.254L6.76563 21.792L7.61625 20.9277L3.06849 16.3916C3.06762 16.3906 3.06654 16.3899 3.06537 16.3894C3.06417 16.3889 3.06291 16.3886 3.06162 16.3886C3.06033 16.3886 3.05904 16.3889 3.05787 16.3894C3.05667 16.3899 3.05562 16.3906 3.05475 16.3916L2.20412 17.254ZM3.49086 13.9792C3.48888 13.9753 3.483 13.9753 3.47907 13.9792L2.62845 14.8416L9.17997 21.3638L10.0306 20.5014L3.49086 13.9792Z" fill="#09D7C3"/>
<path d="M13.4132 2.93129L14.2638 2.08066C14.3376 2.00686 14.4252 1.94831 14.5216 1.90837C14.618 1.86843 14.7213 1.84787 14.8257 1.84787C14.93 1.84787 15.0333 1.86843 15.1297 1.90837C15.2261 1.94831 15.3137 2.00686 15.3875 2.08066L15.8216 2.51285C15.8236 2.51088 15.8236 2.50695 15.8275 2.50499L16.6781 1.65436C16.8271 1.50548 17.029 1.42169 17.2396 1.42132C17.4502 1.42096 17.6524 1.50404 17.8018 1.65239L18.0926 1.94314L19.2339 0.801759C19.3829 0.652884 19.5848 0.569094 19.7953 0.568725C20.0059 0.568356 20.2081 0.651441 20.3576 0.799794L20.6483 1.09054L20.6542 1.08465L21.5049 0.232049C21.6541 0.0834375 21.8561 0 22.0667 0C22.2773 0 22.4793 0.0834375 22.6285 0.232049L23.766 1.36557C23.8399 1.43922 23.8986 1.52671 23.9387 1.62304C23.9788 1.71937 23.9995 1.82266 23.9997 1.92701C23.9999 2.03137 23.9795 2.13473 23.9398 2.2312C23.9 2.32768 23.8416 2.41537 23.7679 2.48927L22.9153 3.34188C22.9134 3.34383 22.9114 3.34383 22.9094 3.34581L23.2002 3.63654C23.2746 3.70989 23.3337 3.7974 23.3738 3.89388C23.4139 3.99036 23.4344 4.09389 23.434 4.19841C23.4341 4.30269 23.4137 4.40598 23.374 4.5024C23.3342 4.59879 23.2758 4.68642 23.2021 4.76025L22.0667 5.89575C22.0647 5.8977 22.0628 5.8977 22.0608 5.89968L22.3516 6.19041C22.5 6.33972 22.5833 6.54171 22.5833 6.75225C22.5833 6.96282 22.5 7.16481 22.3516 7.31412L21.495 8.17065L21.9272 8.60088C22.0765 8.7498 22.1606 8.95185 22.161 9.16272C22.1614 9.26721 22.141 9.37077 22.1008 9.46725C22.0607 9.56373 22.0016 9.65121 21.9272 9.72456L21.0766 10.5772C20.9272 10.7256 20.7253 10.8089 20.5147 10.809C20.4104 10.8094 20.3071 10.7891 20.2106 10.7493C20.1142 10.7095 20.0266 10.651 19.9529 10.5772L13.4132 4.05498C13.3391 3.98136 13.2803 3.89382 13.2402 3.7974C13.2001 3.70098 13.1794 3.59757 13.1794 3.49314C13.1794 3.38871 13.2001 3.2853 13.2402 3.18888C13.2803 3.09243 13.3391 3.00489 13.4132 2.93129ZM23.212 1.92349L22.0608 0.788007L21.2102 1.65043L22.3476 2.78591C22.3516 2.78984 22.3574 2.78984 22.3594 2.78591L23.212 1.92349ZM22.6462 4.1925L19.7899 1.35771L18.6544 2.50302L21.497 5.33979C21.4992 5.34075 21.5015 5.34126 21.5039 5.34126C21.5062 5.34126 21.5086 5.34075 21.5107 5.33979L22.6462 4.1925ZM21.7956 6.74637L17.2341 2.20835L16.3835 3.07272L20.9312 7.60878C20.9321 7.60974 20.9332 7.61049 20.9344 7.611C20.9355 7.61151 20.9368 7.61178 20.9381 7.61178C20.9394 7.61178 20.9407 7.61151 20.9419 7.611C20.943 7.61049 20.9441 7.60974 20.945 7.60878L21.7956 6.74637ZM20.5089 10.0212C20.5108 10.0251 20.5167 10.0251 20.5207 10.0212L21.3713 9.15879L14.8198 2.63661L13.9691 3.49902L20.5089 10.0212Z" fill="#2D4356"/>
<path d="M13.4132 2.93129L14.2638 2.08066C14.3376 2.00686 14.4252 1.94831 14.5216 1.90837C14.618 1.86843 14.7213 1.84787 14.8257 1.84787C14.93 1.84787 15.0333 1.86843 15.1297 1.90837C15.2261 1.94831 15.3137 2.00686 15.3875 2.08066L15.8216 2.51285C15.8236 2.51088 15.8236 2.50695 15.8275 2.50499L16.6781 1.65436C16.8271 1.50548 17.029 1.42169 17.2396 1.42132C17.4502 1.42096 17.6524 1.50404 17.8018 1.65239L18.0926 1.94314L19.2339 0.801759C19.3829 0.652884 19.5848 0.569094 19.7953 0.568725C20.0059 0.568356 20.2081 0.651441 20.3576 0.799794L20.6483 1.09054L20.6542 1.08465L21.5049 0.232049C21.6541 0.0834375 21.8561 0 22.0667 0C22.2773 0 22.4793 0.0834375 22.6285 0.232049L23.766 1.36557C23.8399 1.43922 23.8986 1.52671 23.9387 1.62304C23.9788 1.71937 23.9995 1.82266 23.9997 1.92701C23.9999 2.03137 23.9795 2.13473 23.9398 2.2312C23.9 2.32768 23.8416 2.41537 23.7679 2.48927L22.9153 3.34188C22.9134 3.34383 22.9114 3.34383 22.9094 3.34581L23.2002 3.63654C23.2746 3.70989 23.3337 3.7974 23.3738 3.89388C23.4139 3.99036 23.4344 4.09389 23.434 4.19841C23.4341 4.30269 23.4137 4.40598 23.374 4.5024C23.3342 4.59879 23.2758 4.68642 23.2021 4.76025L22.0667 5.89575C22.0647 5.8977 22.0628 5.8977 22.0608 5.89968L22.3516 6.19041C22.5 6.33972 22.5833 6.54171 22.5833 6.75225C22.5833 6.96282 22.5 7.16481 22.3516 7.31412L21.495 8.17065L21.9272 8.60088C22.0765 8.7498 22.1606 8.95185 22.161 9.16272C22.1614 9.26721 22.141 9.37077 22.1008 9.46725C22.0607 9.56373 22.0016 9.65121 21.9272 9.72456L21.0766 10.5772C20.9272 10.7256 20.7253 10.8089 20.5147 10.809C20.4104 10.8094 20.3071 10.7891 20.2106 10.7493C20.1142 10.7095 20.0266 10.651 19.9529 10.5772L13.4132 4.05498C13.3391 3.98136 13.2803 3.89382 13.2402 3.7974C13.2001 3.70098 13.1794 3.59757 13.1794 3.49314C13.1794 3.38871 13.2001 3.2853 13.2402 3.18888C13.2803 3.09243 13.3391 3.00489 13.4132 2.93129ZM23.212 1.92349L22.0608 0.788007L21.2102 1.65043L22.3476 2.78591C22.3516 2.78984 22.3574 2.78984 22.3594 2.78591L23.212 1.92349ZM22.6462 4.1925L19.7899 1.35771L18.6544 2.50302L21.497 5.33979C21.4992 5.34075 21.5015 5.34126 21.5039 5.34126C21.5062 5.34126 21.5086 5.34075 21.5107 5.33979L22.6462 4.1925ZM21.7956 6.74637L17.2341 2.20835L16.3835 3.07272L20.9312 7.60878C20.9321 7.60974 20.9332 7.61049 20.9344 7.611C20.9355 7.61151 20.9368 7.61178 20.9381 7.61178C20.9394 7.61178 20.9407 7.61151 20.9419 7.611C20.943 7.61049 20.9441 7.60974 20.945 7.60878L21.7956 6.74637ZM20.5089 10.0212C20.5108 10.0251 20.5167 10.0251 20.5207 10.0212L21.3713 9.15879L14.8198 2.63661L13.9691 3.49902L20.5089 10.0212Z" fill="#09D7C3"/>
<path d="M6.18616 8.44511L6.74191 7.88954L10.3135 11.4616L9.75796 12.017L6.18616 8.44511ZM7.8913 6.74384L8.44687 6.18848L12.0167 9.75839L11.4611 10.314L7.8913 6.74384Z" fill="white"/>
<path d="M6.18616 15.5562L6.74191 16.1118L10.3135 12.5397L9.75796 11.9844L6.18616 15.5562ZM7.8913 17.2575L8.44687 17.8129L12.0167 14.243L11.4611 13.6874L7.8913 17.2575Z" fill="white"/>
<path d="M17.8136 8.44511L17.2578 7.88954L13.6862 11.4616L14.2418 12.017L17.8136 8.44511ZM16.1084 6.74384L15.5529 6.18848L11.983 9.75839L12.5386 10.314L16.1084 6.74384Z" fill="white"/>
<path d="M10.0355 14.0497C8.92698 12.9412 8.92698 11.144 10.0355 10.0355C11.144 8.92697 12.9412 8.92697 14.0498 10.0355C15.1582 11.144 15.1582 12.9412 14.0498 14.0497C12.9412 15.1582 11.144 15.1582 10.0355 14.0497Z" fill="white"/>
<path d="M11.0392 13.0459C10.485 12.4916 10.485 11.593 11.0392 11.0387C11.5935 10.4845 12.4921 10.4845 13.0464 11.0387C13.6006 11.593 13.6006 12.4916 13.0464 13.0459C12.4921 13.6001 11.5935 13.6001 11.0392 13.0459Z" fill="#13655D"/>
</g>
<defs>
<clipPath id="clip0_1_660">
<rect width="195.6" height="24" fill="white"/>
</clipPath>
</defs>
</svg>
