<svg width="13" height="13" viewBox="0 0 13 13" fill="none" xmlns="http://www.w3.org/2000/svg">
<path d="M6.5 0C4.77609 0 3.12279 0.547854 1.90381 1.52304C0.68482 2.49823 0 3.82086 0 5.19998C0 8.70997 5.72813 12.675 5.97188 12.844C6.11905 12.9447 6.30634 13 6.5 13C6.69366 13 6.88095 12.9447 7.02812 12.844C7.3125 12.675 13 8.70997 13 5.19998C13 3.82086 12.3152 2.49823 11.0962 1.52304C9.87721 0.547854 8.22391 0 6.5 0ZM6.5 11.4725C4.76937 10.1725 1.625 7.37098 1.625 5.19998C1.625 4.16564 2.13861 3.17367 3.05285 2.44228C3.96709 1.71089 5.20707 1.3 6.5 1.3C7.79293 1.3 9.03291 1.71089 9.94715 2.44228C10.8614 3.17367 11.375 4.16564 11.375 5.19998C11.375 7.37098 8.23063 10.179 6.5 11.4725ZM6.5 2.59999C5.85721 2.59999 5.22886 2.75248 4.6944 3.03817C4.15994 3.32386 3.74338 3.72992 3.49739 4.20501C3.25141 4.6801 3.18705 5.20287 3.31245 5.70722C3.43785 6.21157 3.74738 6.67484 4.2019 7.03846C4.65642 7.40207 5.23552 7.6497 5.86596 7.75002C6.49639 7.85034 7.14986 7.79885 7.74372 7.60206C8.33758 7.40528 8.84516 7.07203 9.20228 6.64446C9.55939 6.21689 9.75 5.71421 9.75 5.19998C9.75 4.51042 9.40759 3.8491 8.7981 3.36151C8.1886 2.87392 7.36195 2.59999 6.5 2.59999ZM6.5 6.49998C6.17861 6.49998 5.86443 6.42374 5.5972 6.28089C5.32997 6.13804 5.12169 5.93501 4.9987 5.69747C4.8757 5.45993 4.84352 5.19854 4.90622 4.94637C4.96892 4.69419 5.12369 4.46256 5.35095 4.28075C5.57821 4.09894 5.86776 3.97513 6.18298 3.92497C6.4982 3.87481 6.82493 3.90055 7.12186 3.99894C7.41879 4.09734 7.67258 4.26396 7.85114 4.47774C8.0297 4.69153 8.125 4.94287 8.125 5.19998C8.125 5.54476 7.95379 5.87542 7.64905 6.11922C7.3443 6.36302 6.93098 6.49998 6.5 6.49998Z" fill="#09D7C3"/>
</svg>
