<svg width="31" height="31" viewBox="0 0 31 31" fill="none" xmlns="http://www.w3.org/2000/svg">
<path fill-rule="evenodd" clip-rule="evenodd" d="M30.16 3.46663C30.8044 2.82226 30.8044 1.77754 30.16 1.13317C29.5157 0.488813 28.4709 0.488813 27.8266 1.13317L18.0175 10.9422L10.9645 1.32417C10.6537 0.900322 10.1595 0.649902 9.6339 0.649902H2.59336C1.97159 0.649902 1.4026 0.999438 1.12156 1.55407C0.840499 2.1087 0.895097 2.77422 1.26278 3.27563L11.5947 17.365L1.42663 27.5331C0.78227 28.1775 0.78227 29.2222 1.42663 29.8666C2.071 30.5109 3.11571 30.5109 3.76009 29.8666L13.5691 20.0575L20.6222 29.6757C20.9331 30.0994 21.4273 30.3499 21.9528 30.3499H28.9933C29.615 30.3499 30.1841 30.0004 30.4651 29.4457C30.7461 28.8911 30.6917 28.2255 30.3239 27.7241L19.9919 13.6347L30.16 3.46663ZM16.4043 14.3226C16.4553 14.4076 16.5146 14.4888 16.5822 14.5653L25.7372 27.0499H22.789L5.84943 3.9499H8.79778L16.4043 14.3226Z" fill="white"/>
</svg>
