<svg width="24" height="24" viewBox="0 0 24 24" fill="none" xmlns="http://www.w3.org/2000/svg">
<g clip-path="url(#clip0_1_59)">
<path d="M0.125016 12.0002V12C0.125016 5.451 5.44958 0.125 11.997 0.125H12.003C18.5504 0.125 23.875 5.4525 23.875 12C23.875 18.5475 18.5504 23.875 12.003 23.875H12.0027C9.67944 23.88 7.40662 23.1973 5.47062 21.9128L5.42061 21.8797L5.36345 21.8979L0.986011 23.2973L2.40303 19.0733L2.42356 19.0121L2.38554 18.9599C0.912635 16.9386 0.12095 14.5012 0.125016 12.0002Z" fill="#353C3C" fill-opacity="0.45" stroke="white" stroke-width="0.25"/>
<path d="M16.363 14.6412C16.363 14.6411 16.363 14.6411 16.363 14.641C16.4913 14.2513 16.5108 14.0957 16.4956 14.0148C16.4955 14.0142 16.4954 14.0136 16.4953 14.0128C16.4925 13.9949 16.4809 13.9212 16.2327 13.7877L16.2323 13.7875C16.1152 13.7244 16.003 13.6621 15.894 13.6016C15.5862 13.4305 15.3035 13.2734 15.0059 13.1523L15.0054 13.1521C14.951 13.1298 14.9174 13.1223 14.8994 13.1201C14.8876 13.1319 14.8641 13.1584 14.8281 13.2129C14.7973 13.2596 14.767 13.3112 14.7274 13.3785L14.7196 13.3918C14.6789 13.461 14.6294 13.5448 14.5729 13.628C14.4598 13.7945 14.2966 13.9929 14.0469 14.1297L14.0468 14.1297C13.6414 14.3517 13.2159 14.2301 12.9511 14.1179C12.7126 14.0169 12.4803 13.8681 12.325 13.7687C12.3 13.7527 12.2769 13.7379 12.2562 13.7249L12.2536 13.7232L12.2536 13.7232C11.6018 13.3072 11.0287 12.7792 10.5606 12.1636C10.54 12.1369 10.5131 12.1031 10.4818 12.0639C10.3766 11.9321 10.2228 11.7394 10.1002 11.5485C10.017 11.4189 9.93289 11.2684 9.87404 11.1075C9.81605 10.9489 9.77126 10.7496 9.80255 10.5359L9.80277 10.5344L9.80277 10.5344C9.87067 10.0805 10.1674 9.78786 10.3192 9.63815C10.3412 9.61641 10.3602 9.59769 10.375 9.58193C10.449 9.50298 10.4686 9.46683 10.4764 9.44384C10.4807 9.43134 10.4957 9.38502 10.4622 9.26404L10.4621 9.26363C10.4118 9.08141 10.3395 8.89317 10.2544 8.68867C10.2296 8.62897 10.2029 8.56608 10.1755 8.50138C10.1137 8.3559 10.0481 8.20133 9.99141 8.05368C9.99137 8.05358 9.99133 8.05349 9.99129 8.05339L10.4581 7.87417C10.4432 7.83571 10.429 7.7982 10.4152 7.76173C10.2316 7.27706 10.1167 6.97387 9.54307 7.00177L16.363 14.6412ZM16.363 14.6412L16.3629 14.6413C16.3629 14.6414 16.3628 14.6416 16.3628 14.6417C16.3628 14.6418 16.3628 14.6418 16.3627 14.6418C16.278 14.8987 16.0562 15.1276 15.7298 15.2909C15.4031 15.4542 15.0292 15.521 14.7391 15.4948C13.7995 15.4099 12.7283 14.8991 11.888 14.3048C10.6674 13.4414 9.51689 12.0975 8.85076 10.6806L8.85075 10.6806C8.39579 9.71307 8.34465 8.63242 8.92568 7.87504L16.363 14.6412ZM9.22278 7.59351C9.30969 7.54317 9.41557 7.50882 9.56771 7.50117L8.92576 7.87494C9.03617 7.73114 9.132 7.64609 9.22278 7.59351ZM14.8827 13.1196C14.8826 13.1194 14.8843 13.1191 14.8881 13.1192C14.8847 13.1198 14.8828 13.1198 14.8827 13.1196ZM16.6881 14.7482L16.8379 14.7976L16.6881 14.7483C16.6881 14.7483 16.6881 14.7483 16.6881 14.7482Z" stroke="#09D7C3"/>
</g>
<defs>
<clipPath id="clip0_1_59">
<rect width="24" height="24" fill="white"/>
</clipPath>
</defs>
</svg>
